<svg xmlns="http://www.w3.org/2000/svg" xmlns:xlink="http://www.w3.org/1999/xlink" zoomAndPan="magnify" preserveAspectRatio="xMidYMid meet" version="1.2" viewBox="12.66 7.34 188.19 21.94"><defs/><g id="cd14a3aaa7"><g style="fill:#3096d9;fill-opacity:1;"><g transform="translate(10.285973, 29.057594)"><path style="stroke:none" d="M 24.125 -21.296875 L 24.125 0 L 21.328125 0 L 21.328125 -15.875 L 14.25 0 L 12.28125 0 L 5.171875 -15.90625 L 5.171875 0 L 2.375 0 L 2.375 -21.296875 L 5.390625 -21.296875 L 13.265625 -3.6875 L 21.140625 -21.296875 Z M 24.125 -21.296875 "/></g></g><g style="fill:#3096d9;fill-opacity:1;"><g transform="translate(36.768939, 29.057594)"><path style="stroke:none" d="M 5.171875 -19.171875 L 5.171875 -12 L 12.984375 -12 L 12.984375 -9.6875 L 5.171875 -9.6875 L 5.171875 -2.3125 L 13.90625 -2.3125 L 13.90625 0 L 2.375 0 L 2.375 -21.46875 L 13.90625 -21.46875 L 13.90625 -19.171875 Z M 5.171875 -19.171875 "/></g></g><g style="fill:#3096d9;fill-opacity:1;"><g transform="translate(52.547988, 29.057594)"><path style="stroke:none" d="M 9.046875 -21.4375 C 11.378906 -21.4375 13.398438 -21 15.109375 -20.125 C 16.828125 -19.257812 18.140625 -18.015625 19.046875 -16.390625 C 19.960938 -14.773438 20.421875 -12.867188 20.421875 -10.671875 C 20.421875 -8.484375 19.960938 -6.582031 19.046875 -4.96875 C 18.140625 -3.351562 16.828125 -2.117188 15.109375 -1.265625 C 13.398438 -0.421875 11.378906 0 9.046875 0 L 2.375 0 L 2.375 -21.4375 Z M 9.046875 -2.3125 C 11.816406 -2.3125 13.925781 -3.039062 15.375 -4.5 C 16.832031 -5.96875 17.5625 -8.023438 17.5625 -10.671875 C 17.5625 -13.335938 16.828125 -15.421875 15.359375 -16.921875 C 13.898438 -18.421875 11.796875 -19.171875 9.046875 -19.171875 L 5.171875 -19.171875 L 5.171875 -2.3125 Z M 9.046875 -2.3125 "/></g></g><g style="fill:#3096d9;fill-opacity:1;"><g transform="translate(74.294164, 29.057594)"><path style="stroke:none" d="M 5.171875 -21.4375 L 5.171875 0 L 2.375 0 L 2.375 -21.4375 Z M 5.171875 -21.4375 "/></g></g><g style="fill:#3096d9;fill-opacity:1;"><g transform="translate(81.860723, 29.057594)"><path style="stroke:none" d="M 9.171875 0.21875 C 7.753906 0.21875 6.484375 -0.03125 5.359375 -0.53125 C 4.242188 -1.039062 3.367188 -1.738281 2.734375 -2.625 C 2.097656 -3.519531 1.769531 -4.550781 1.75 -5.71875 L 4.734375 -5.71875 C 4.835938 -4.71875 5.253906 -3.875 5.984375 -3.1875 C 6.710938 -2.5 7.773438 -2.15625 9.171875 -2.15625 C 10.503906 -2.15625 11.550781 -2.488281 12.3125 -3.15625 C 13.082031 -3.820312 13.46875 -4.675781 13.46875 -5.71875 C 13.46875 -6.539062 13.242188 -7.207031 12.796875 -7.71875 C 12.347656 -8.226562 11.785156 -8.617188 11.109375 -8.890625 C 10.429688 -9.160156 9.519531 -9.445312 8.375 -9.75 C 6.957031 -10.125 5.820312 -10.492188 4.96875 -10.859375 C 4.113281 -11.222656 3.382812 -11.800781 2.78125 -12.59375 C 2.175781 -13.382812 1.875 -14.445312 1.875 -15.78125 C 1.875 -16.945312 2.171875 -17.984375 2.765625 -18.890625 C 3.359375 -19.796875 4.191406 -20.492188 5.265625 -20.984375 C 6.347656 -21.472656 7.585938 -21.71875 8.984375 -21.71875 C 10.992188 -21.71875 12.640625 -21.210938 13.921875 -20.203125 C 15.203125 -19.203125 15.925781 -17.875 16.09375 -16.21875 L 13.015625 -16.21875 C 12.910156 -17.03125 12.476562 -17.75 11.71875 -18.375 C 10.957031 -19.007812 9.953125 -19.328125 8.703125 -19.328125 C 7.535156 -19.328125 6.582031 -19.019531 5.84375 -18.40625 C 5.101562 -17.800781 4.734375 -16.957031 4.734375 -15.875 C 4.734375 -15.09375 4.953125 -14.457031 5.390625 -13.96875 C 5.835938 -13.476562 6.382812 -13.101562 7.03125 -12.84375 C 7.675781 -12.582031 8.582031 -12.289062 9.75 -11.96875 C 11.164062 -11.582031 12.300781 -11.195312 13.15625 -10.8125 C 14.019531 -10.4375 14.757812 -9.851562 15.375 -9.0625 C 16 -8.269531 16.3125 -7.195312 16.3125 -5.84375 C 16.3125 -4.800781 16.03125 -3.816406 15.46875 -2.890625 C 14.914062 -1.960938 14.097656 -1.210938 13.015625 -0.640625 C 11.929688 -0.0664062 10.648438 0.21875 9.171875 0.21875 Z M 9.171875 0.21875 "/></g></g><g style="fill:#3096d9;fill-opacity:1;"><g transform="translate(99.915886, 29.057594)"><path style="stroke:none" d="M 1.328125 -10.734375 C 1.328125 -12.828125 1.796875 -14.707031 2.734375 -16.375 C 3.679688 -18.050781 4.96875 -19.359375 6.59375 -20.296875 C 8.226562 -21.242188 10.039062 -21.71875 12.03125 -21.71875 C 14.363281 -21.71875 16.398438 -21.15625 18.140625 -20.03125 C 19.890625 -18.90625 21.164062 -17.304688 21.96875 -15.234375 L 18.609375 -15.234375 C 18.015625 -16.523438 17.160156 -17.519531 16.046875 -18.21875 C 14.929688 -18.914062 13.59375 -19.265625 12.03125 -19.265625 C 10.53125 -19.265625 9.1875 -18.914062 8 -18.21875 C 6.8125 -17.519531 5.878906 -16.53125 5.203125 -15.25 C 4.523438 -13.96875 4.1875 -12.460938 4.1875 -10.734375 C 4.1875 -9.035156 4.523438 -7.546875 5.203125 -6.265625 C 5.878906 -4.984375 6.8125 -3.992188 8 -3.296875 C 9.1875 -2.597656 10.53125 -2.25 12.03125 -2.25 C 13.59375 -2.25 14.929688 -2.59375 16.046875 -3.28125 C 17.160156 -3.96875 18.015625 -4.957031 18.609375 -6.25 L 21.96875 -6.25 C 21.164062 -4.195312 19.890625 -2.609375 18.140625 -1.484375 C 16.398438 -0.367188 14.363281 0.1875 12.03125 0.1875 C 10.039062 0.1875 8.226562 -0.273438 6.59375 -1.203125 C 4.96875 -2.140625 3.679688 -3.4375 2.734375 -5.09375 C 1.796875 -6.757812 1.328125 -8.640625 1.328125 -10.734375 Z M 1.328125 -10.734375 "/></g></g><g style="fill:#3096d9;fill-opacity:1;"><g transform="translate(123.661357, 29.057594)"><path style="stroke:none" d="M 15.046875 -4.765625 L 5.6875 -4.765625 L 3.96875 0 L 1.015625 0 L 8.765625 -21.328125 L 12 -21.328125 L 19.71875 0 L 16.765625 0 Z M 14.25 -7.046875 L 10.375 -17.875 L 6.484375 -7.046875 Z M 14.25 -7.046875 "/></g></g><g style="fill:#3096d9;fill-opacity:1;"><g transform="translate(144.392511, 29.057594)"><path style="stroke:none" d="M 19.234375 0 L 16.421875 0 L 5.171875 -17.078125 L 5.171875 0 L 2.375 0 L 2.375 -21.46875 L 5.171875 -21.46875 L 16.421875 -4.4375 L 16.421875 -21.46875 L 19.234375 -21.46875 Z M 19.234375 0 "/></g></g><g style="fill:#ffffff;fill-opacity:1;"><g transform="translate(174.952135, 29.057594)"><path style="stroke:none" d="M 15.046875 -4.765625 L 5.6875 -4.765625 L 3.96875 0 L 1.015625 0 L 8.765625 -21.328125 L 12 -21.328125 L 19.71875 0 L 16.765625 0 Z M 14.25 -7.046875 L 10.375 -17.875 L 6.484375 -7.046875 Z M 14.25 -7.046875 "/></g></g><g style="fill:#ffffff;fill-opacity:1;"><g transform="translate(195.683282, 29.057594)"><path style="stroke:none" d="M 5.171875 -21.4375 L 5.171875 0 L 2.375 0 L 2.375 -21.4375 Z M 5.171875 -21.4375 "/></g></g></g></svg>